<?xml version="1.0" standalone="no"?>
<!DOCTYPE svg PUBLIC "-//W3C//DTD SVG 20010904//EN"
 "http://www.w3.org/TR/2001/REC-SVG-20010904/DTD/svg10.dtd">
<svg version="1.0" xmlns="http://www.w3.org/2000/svg"
 width="50.000000pt" height="50.000000pt" viewBox="0 0 50.000000 50.000000"
 preserveAspectRatio="xMidYMid meet">

<g transform="translate(0.000000,50.000000) scale(0.100000,-0.100000)"
fill="#000000" stroke="none">
<path d="M177 460 c-42 -23 -72 -65 -81 -115 -4 -19 -17 -40 -30 -48 -56 -37
-74 -147 -33 -207 33 -51 81 -74 141 -71 63 3 88 3 151 0 90 -4 154 51 163
141 5 53 -24 122 -58 140 -13 7 -20 21 -20 39 0 33 -33 85 -72 114 -39 29
-114 32 -161 7z m143 -26 c29 -18 60 -62 60 -87 0 -22 -95 -31 -202 -21 -32 3
-58 8 -58 10 0 3 6 20 14 39 28 66 123 96 186 59z m-102 -139 c1 -1 -8 -21
-21 -44 -22 -39 -25 -40 -40 -24 -8 10 -20 30 -26 45 -9 24 -7 27 12 31 19 3
67 -2 75 -8z m148 5 c22 0 17 -25 -12 -60 l-27 -31 -23 41 c-13 23 -24 44 -24
45 0 6 44 12 58 9 8 -2 20 -4 28 -4z m-251 -56 c10 -19 27 -40 36 -45 10 -5
20 -27 24 -49 4 -21 16 -51 27 -66 17 -21 19 -27 7 -35 -19 -12 -52 -11 -86 2
-86 32 -112 124 -58 205 21 32 27 30 50 -12z m325 4 c28 -45 27 -117 -2 -153
-35 -44 -111 -68 -147 -46 -12 8 -11 13 6 35 12 14 24 41 27 59 3 19 18 45 32
58 14 13 32 36 40 52 8 15 17 27 19 27 3 0 14 -15 25 -32z m-160 -10 c24 -40
19 -48 -30 -48 -21 0 -41 4 -44 8 -7 11 31 72 44 72 6 0 19 -14 30 -32z m15
-97 c-7 -28 -34 -71 -45 -71 -11 0 -38 43 -45 72 -6 22 -4 23 45 23 48 0 51
-1 45 -24z"/>
</g>
</svg>
